<?xml version="1.0" encoding="UTF-8"?>
<svg xmlns="http://www.w3.org/2000/svg" xmlns:xlink="http://www.w3.org/1999/xlink" width="px" height="px" viewBox="0 0 217 33" version="1.1">
<g id="surface1">
<path style=" stroke:none;fill-rule:nonzero;fill:rgb(98.823529%,70.588235%,10.196078%);fill-opacity:1;" d="M 27.941406 32.832031 L 17.28125 27.273438 L 6.65625 32.917969 L 8.644531 21.042969 L 0 12.671875 L 11.894531 10.894531 L 17.171875 0.0742188 L 22.539062 10.855469 L 34.445312 12.539062 L 25.863281 20.976562 Z M 27.941406 32.832031 "/>
<path style=" stroke:none;fill-rule:nonzero;fill:rgb(86.27451%,85.490196%,85.098039%);fill-opacity:1;" d="M 73.582031 32.832031 L 62.917969 27.273438 L 52.296875 32.917969 L 54.285156 21.042969 L 45.640625 12.671875 L 57.535156 10.894531 L 62.8125 0.0742188 L 68.175781 10.855469 L 80.082031 12.539062 L 71.503906 20.976562 Z M 73.582031 32.832031 "/>
<path style=" stroke:none;fill-rule:nonzero;fill:rgb(86.27451%,85.490196%,85.098039%);fill-opacity:1;" d="M 119.222656 32.832031 L 108.558594 27.273438 L 97.9375 32.917969 L 99.921875 21.042969 L 91.277344 12.671875 L 103.171875 10.894531 L 108.457031 0.0742188 L 113.816406 10.855469 L 125.722656 12.539062 L 117.144531 20.976562 Z M 119.222656 32.832031 "/>
<path style=" stroke:none;fill-rule:nonzero;fill:rgb(86.27451%,85.490196%,85.098039%);fill-opacity:1;" d="M 164.859375 32.832031 L 154.199219 27.273438 L 143.574219 32.917969 L 145.5625 21.042969 L 136.921875 12.671875 L 148.8125 10.894531 L 154.097656 0.0742188 L 159.457031 10.855469 L 171.367188 12.539062 L 162.785156 20.976562 Z M 164.859375 32.832031 "/>
<path style=" stroke:none;fill-rule:nonzero;fill:rgb(86.27451%,85.490196%,85.098039%);fill-opacity:1;" d="M 208.425781 20.976562 L 210.503906 32.832031 L 199.835938 27.277344 L 199.828125 27.285156 L 189.21875 32.917969 L 191.203125 21.042969 L 182.5625 12.671875 L 194.453125 10.894531 L 199.734375 0.0742188 L 199.828125 0.246094 L 205.09375 10.855469 L 217 12.542969 Z M 208.425781 20.976562 "/>
</g>
</svg>
