<?xml version="1.0" encoding="UTF-8"?>
<svg xmlns="http://www.w3.org/2000/svg" xmlns:xlink="http://www.w3.org/1999/xlink" width="px" height="px" viewBox="0 0 217 33" version="1.1">
<g id="surface1">
<path style=" stroke:none;fill-rule:nonzero;fill:rgb(98.823529%,70.588235%,10.196078%);fill-opacity:1;" d="M 27.941406 32.839844 L 17.28125 27.277344 L 6.65625 32.925781 L 8.644531 21.050781 L 0 12.675781 L 11.894531 10.898438 L 17.171875 0.0820312 L 22.539062 10.859375 L 34.441406 12.542969 L 25.863281 20.984375 Z M 27.941406 32.839844 "/>
<path style=" stroke:none;fill-rule:nonzero;fill:rgb(98.823529%,70.588235%,10.196078%);fill-opacity:1;" d="M 73.582031 32.839844 L 62.917969 27.277344 L 52.296875 32.925781 L 54.28125 21.050781 L 45.636719 12.675781 L 57.53125 10.898438 L 62.8125 0.0820312 L 68.175781 10.859375 L 80.082031 12.542969 L 71.5 20.984375 Z M 73.582031 32.839844 "/>
<path style=" stroke:none;fill-rule:nonzero;fill:rgb(98.823529%,70.588235%,10.196078%);fill-opacity:1;" d="M 119.21875 32.839844 L 108.554688 27.277344 L 97.933594 32.925781 L 99.921875 21.050781 L 91.277344 12.675781 L 103.171875 10.898438 L 108.453125 0.0820312 L 113.8125 10.859375 L 125.71875 12.542969 L 117.140625 20.984375 Z M 119.21875 32.839844 "/>
<path style=" stroke:none;fill-rule:nonzero;fill:rgb(98.823529%,70.588235%,10.196078%);fill-opacity:1;" d="M 164.855469 32.839844 L 154.195312 27.277344 L 143.570312 32.925781 L 145.558594 21.050781 L 136.917969 12.675781 L 148.808594 10.898438 L 154.09375 0.0820312 L 159.453125 10.859375 L 171.363281 12.542969 L 162.78125 20.984375 Z M 164.855469 32.839844 "/>
<path style=" stroke:none;fill-rule:nonzero;fill:rgb(98.823529%,70.588235%,10.196078%);fill-opacity:1;" d="M 210.5 32.839844 L 199.832031 27.277344 L 189.214844 32.925781 L 191.203125 21.050781 L 182.558594 12.675781 L 194.445312 10.898438 L 199.730469 0.0820312 L 205.09375 10.859375 L 217 12.542969 L 208.421875 20.984375 Z M 210.5 32.839844 "/>
</g>
</svg>
